<?xml version="1.0" encoding="UTF-8" ?>
<!DOCTYPE svg PUBLIC "-//W3C//DTD SVG 1.1//EN" "http://www.w3.org/Graphics/SVG/1.1/DTD/svg11.dtd">
<svg width="769pt" height="329pt" viewBox="0 0 769 329" version="1.1" xmlns="http://www.w3.org/2000/svg">
<g id="#75cedeff">
<path fill="#75cede" opacity="1.00" d=" M 31.79 48.81 C 69.96 10.67 127.43 -6.71 180.34 3.81 C 220.44 11.37 257.66 34.71 280.69 68.56 C 280.71 69.08 280.73 70.12 280.75 70.63 C 280.24 70.58 279.24 70.47 278.74 70.41 C 258.16 46.43 229.64 29.54 198.82 22.68 C 171.50 16.46 142.39 18.33 116.12 28.09 C 93.12 36.40 72.32 50.85 56.75 69.74 C 53.07 74.44 46.82 77.09 40.89 75.94 C 33.68 74.89 27.73 68.36 27.49 61.05 C 27.13 56.61 28.62 51.98 31.79 48.81 Z" />
</g>
<g id="#017cbaff">
<path fill="#017cba" opacity="1.00" d=" M 749.01 22.93 C 755.75 17.96 761.99 12.32 769.00 7.72 L 769.00 239.42 C 761.08 239.59 753.16 239.47 745.25 239.49 C 745.24 168.97 745.26 98.44 745.23 27.91 C 744.73 25.36 747.46 24.33 749.01 22.93 Z" />
<path fill="#017cba" opacity="1.00" d=" M 108.78 85.99 C 128.92 75.16 152.45 71.45 175.09 73.48 C 188.75 74.86 203.14 79.94 211.44 91.49 C 219.70 102.45 221.08 116.70 221.01 129.99 C 220.99 166.49 221.01 202.99 221.00 239.50 C 213.08 239.50 205.16 239.51 197.24 239.49 C 197.25 233.04 197.25 226.60 197.24 220.15 C 186.57 231.57 172.45 240.16 156.79 242.24 C 140.44 244.48 122.19 241.81 109.48 230.53 C 99.96 222.15 95.38 209.49 94.52 197.08 C 93.25 183.69 95.98 169.33 104.80 158.81 C 114.86 146.58 130.63 140.67 146.00 138.98 C 163.39 137.27 181.56 139.43 197.26 147.47 C 196.67 135.29 198.98 122.56 194.46 110.90 C 191.59 102.96 184.66 96.76 176.52 94.60 C 165.98 91.66 154.74 92.46 144.12 94.61 C 134.68 96.50 125.91 100.62 117.46 105.11 C 114.70 98.67 111.64 92.38 108.78 85.99 M 125.51 167.57 C 118.67 174.33 116.75 184.57 117.68 193.83 C 118.33 202.36 121.33 211.28 128.17 216.83 C 136.16 223.36 147.14 224.50 157.06 223.40 C 171.50 221.94 184.88 214.26 194.20 203.25 C 195.35 201.63 197.36 200.20 197.24 198.01 C 197.29 187.54 197.18 177.07 197.29 166.60 C 184.29 158.91 168.83 157.10 153.99 157.26 C 143.81 157.57 132.82 159.96 125.51 167.57 Z" />
<path fill="#017cba" opacity="1.00" d=" M 262.37 94.50 C 269.71 82.40 283.48 75.58 297.16 73.68 C 319.24 70.87 343.01 75.93 360.36 90.36 C 355.89 96.10 351.60 101.98 347.06 107.66 C 338.87 101.15 329.45 95.75 318.99 94.02 C 311.04 92.77 302.73 92.29 294.92 94.55 C 289.68 96.04 284.72 99.19 281.91 103.95 C 278.69 109.56 278.77 116.74 281.52 122.51 C 284.33 127.87 289.55 131.34 294.62 134.35 C 311.42 143.91 330.26 149.65 346.20 160.76 C 354.22 166.27 360.64 174.39 362.85 183.99 C 365.62 196.26 364.70 209.99 357.73 220.76 C 351.03 231.13 339.67 237.63 327.90 240.58 C 301.09 247.37 271.79 239.47 250.61 222.09 C 255.16 216.28 259.83 210.57 264.41 204.78 C 275.95 214.81 290.45 222.14 305.94 222.73 C 315.13 223.06 325.03 222.25 332.78 216.80 C 340.94 211.07 343.55 199.57 340.35 190.42 C 337.97 184.05 332.24 179.80 326.67 176.33 C 309.93 166.04 290.38 161.10 274.26 149.70 C 266.76 144.45 260.51 136.93 258.40 127.86 C 255.83 116.80 256.18 104.36 262.37 94.50 Z" />
<path fill="#017cba" opacity="1.00" d=" M 463.49 74.70 C 480.35 70.60 499.64 73.23 512.99 84.95 C 527.22 97.21 533.49 116.05 535.87 134.16 C 538.29 154.74 537.62 175.98 531.62 195.93 C 527.02 210.95 518.48 225.39 505.18 234.22 C 490.68 244.04 471.48 245.31 455.18 239.61 C 445.20 236.12 436.81 229.35 429.76 221.63 C 429.69 242.55 429.85 263.48 429.69 284.40 C 421.83 290.28 414.10 296.32 406.25 302.21 C 406.24 226.89 406.25 151.57 406.25 76.25 C 414.08 76.24 421.91 76.25 429.75 76.25 C 429.76 82.78 429.74 89.32 429.76 95.85 C 438.89 86.04 450.31 77.91 463.49 74.70 M 429.73 116.97 C 429.77 143.99 429.76 171.01 429.74 198.04 C 439.32 212.72 456.26 222.76 473.98 222.53 C 483.53 222.60 493.28 218.83 499.53 211.45 C 507.77 201.88 510.96 189.17 512.64 176.95 C 514.43 162.09 514.61 146.92 511.87 132.17 C 509.65 121.13 505.39 109.86 496.89 102.12 C 488.68 94.58 476.84 92.09 466.03 93.83 C 451.29 95.93 438.70 105.48 429.73 116.97 Z" />
<path fill="#017cba" opacity="1.00" d=" M 604.42 81.54 C 617.94 73.25 634.60 71.34 650.03 74.07 C 662.32 76.28 673.93 82.41 682.31 91.73 C 693.63 104.14 699.32 120.71 701.31 137.17 C 702.44 146.71 702.75 156.41 701.41 165.95 C 666.08 166.07 630.75 165.97 595.41 166.00 C 603.72 159.75 612.12 153.62 620.47 147.42 C 621.71 146.38 623.45 146.87 624.94 146.73 C 643.36 146.81 661.79 146.68 680.22 146.79 C 679.46 132.97 676.34 118.54 667.60 107.44 C 660.98 99.02 650.60 94.01 639.97 93.47 C 628.28 92.18 615.90 96.13 607.90 104.92 C 597.32 116.14 593.72 131.99 592.52 146.92 C 591.43 165.07 592.35 184.32 601.32 200.59 C 607.64 212.33 619.65 221.04 633.05 222.33 C 643.43 223.06 654.09 221.79 663.73 217.72 C 670.53 214.88 676.84 211.03 682.92 206.90 C 686.61 212.58 690.33 218.24 693.98 223.95 C 686.05 229.00 677.91 233.85 669.10 237.21 C 657.64 241.75 645.17 243.25 632.92 242.96 C 617.63 242.38 602.66 235.93 591.89 225.04 C 578.81 211.75 572.29 193.34 570.16 175.10 C 568.05 155.41 568.91 134.90 576.23 116.29 C 581.70 102.17 591.28 89.32 604.42 81.54 Z" />
</g>
<g id="#b1d34aff">
<path fill="#b1d34a" opacity="1.00" d=" M 10.83 112.11 C 11.87 110.10 12.03 106.44 15.16 107.01 C 14.71 110.05 13.81 113.00 12.86 115.92 C -0.49 161.43 9.36 213.03 38.51 250.44 C 54.45 271.21 76.49 287.13 101.05 296.12 C 130.95 307.16 164.45 308.19 194.95 298.90 C 217.51 292.17 238.18 279.48 254.41 262.43 C 260.10 255.79 271.25 255.38 277.53 261.40 C 284.25 267.28 284.46 278.80 277.92 284.91 C 269.41 292.59 260.30 299.69 250.43 305.55 C 226.84 319.70 199.69 327.51 172.27 329.00 L 154.80 329.00 C 132.52 327.61 110.35 322.41 90.24 312.62 C 68.25 302.17 48.60 286.63 33.78 267.27 C 0.13 224.12 -9.14 163.15 10.83 112.11 Z" />
</g>
</svg>
